<svg width="64" height="64" viewBox="0 0 64 64" fill="none" xmlns="http://www.w3.org/2000/svg">
<circle cx="32" cy="32" r="32" fill="#353543"/>
<path d="M25 18C24.0717 18 23.1815 18.3687 22.5251 19.0251C21.8687 19.6815 21.5 20.5717 21.5 21.5V26.75H25.875C27.0353 26.75 28.1481 27.2109 28.9686 28.0314C29.7891 28.8519 30.25 29.9647 30.25 31.125V37.25H35.5V40.75H30.25V42.5H39.875C40.1071 42.5 40.3296 42.4078 40.4937 42.2437C40.6578 42.0796 40.75 41.8571 40.75 41.625C40.75 41.3929 40.6578 41.1704 40.4937 41.0063C40.3296 40.8422 40.1071 40.75 39.875 40.75H37.25V37.25H42.5C43.4283 37.25 44.3185 36.8813 44.9749 36.2249C45.6313 35.5685 46 34.6783 46 33.75V21.5C46 20.5717 45.6313 19.6815 44.9749 19.0251C44.3185 18.3687 43.4283 18 42.5 18H25Z" fill="#FFBA1A"/>
<path d="M20.625 28.5C19.9288 28.5 19.2611 28.7766 18.7688 29.2688C18.2766 29.7611 18 30.4288 18 31.125V43.375C18 44.0712 18.2766 44.7389 18.7688 45.2312C19.2611 45.7234 19.9288 46 20.625 46H25.875C26.5712 46 27.2389 45.7234 27.7312 45.2312C28.2234 44.7389 28.5 44.0712 28.5 43.375V31.125C28.5 30.4288 28.2234 29.7611 27.7312 29.2688C27.2389 28.7766 26.5712 28.5 25.875 28.5H20.625ZM21.5 41.625C21.5 41.3929 21.5922 41.1704 21.7563 41.0063C21.9204 40.8422 22.1429 40.75 22.375 40.75H24.125C24.3571 40.75 24.5796 40.8422 24.7437 41.0063C24.9078 41.1704 25 41.3929 25 41.625C25 41.8571 24.9078 42.0796 24.7437 42.2437C24.5796 42.4078 24.3571 42.5 24.125 42.5H22.375C22.1429 42.5 21.9204 42.4078 21.7563 42.2437C21.5922 42.0796 21.5 41.8571 21.5 41.625Z" fill="#FFBA1A"/>
</svg>
