<svg width="64" height="64" viewBox="0 0 64 64" fill="none" xmlns="http://www.w3.org/2000/svg">
<circle cx="32" cy="32" r="32" fill="#353543"/>
<path d="M38.5968 31.2369L41.0392 28.7945L35.2055 22.9608L32.7631 25.4032L26.3227 18.9783C25.1093 17.7649 23.1336 17.7649 21.9202 18.9783L18.9645 21.9341C17.7511 23.1475 17.7511 25.1232 18.9645 26.3366L25.3893 32.7614L18 40.1663V46H23.8337L31.2386 38.5951L37.6634 45.0199C39.1413 46.4978 41.1325 45.9533 42.0659 45.0199L45.0217 42.0642C46.2351 40.8508 46.2351 38.8751 45.0217 37.6617L38.5968 31.2369ZM27.6139 30.5524L21.1735 24.1275L24.1137 21.1718L26.0894 23.1475L24.2537 24.9987L26.4472 27.1922L28.2984 25.3409L30.5541 27.5966L27.6139 30.5524ZM39.8725 42.8265L33.4476 36.4016L36.4034 33.4459L38.6591 35.7016L36.8078 37.5528L39.0013 39.7463L40.8525 37.8951L42.8282 39.8707L39.8725 42.8265ZM45.5506 24.2831C45.6948 24.1392 45.8092 23.9682 45.8873 23.78C45.9653 23.5919 46.0055 23.3901 46.0055 23.1864C46.0055 22.9826 45.9653 22.7809 45.8873 22.5927C45.8092 22.4045 45.6948 22.2336 45.5506 22.0896L41.9104 18.4494C41.1792 17.7183 40.168 17.9983 39.7169 18.4494L36.8701 21.2963L42.7037 27.1299L45.5506 24.2831Z" fill="#FFBA1A"/>
</svg>
