<svg width="64" height="64" viewBox="0 0 64 64" fill="none" xmlns="http://www.w3.org/2000/svg">
<circle cx="32" cy="32" r="32" fill="#353543"/>
<path d="M30.9231 29.8462C30.9231 28.6335 31.3237 27.5157 32 26.6154H18V38.4615C18 39.8896 18.5673 41.2592 19.5771 42.269C20.5869 43.2788 21.9565 43.8462 23.3846 43.8462H31.0308C30.959 43.4917 30.9229 43.1309 30.9231 42.7692V29.8462ZM18 24.4615V23.3846C18 21.9565 18.5673 20.5869 19.5771 19.5771C20.5869 18.5673 21.9565 18 23.3846 18H38.4615C39.8896 18 41.2592 18.5673 42.269 19.5771C43.2788 20.5869 43.8462 21.9565 43.8462 23.3846V24.4615H18ZM36.8462 26.6154C35.8465 26.6154 34.8878 27.0125 34.1809 27.7194C33.474 28.4262 33.0769 29.385 33.0769 30.3846V42.2308C33.0769 44.3114 34.7655 46 36.8462 46H42.2308C43.2304 46 44.1892 45.6029 44.896 44.896C45.6029 44.1892 46 43.2304 46 42.2308V30.3846C46 29.385 45.6029 28.4262 44.896 27.7194C44.1892 27.0125 43.2304 26.6154 42.2308 26.6154H36.8462ZM37.3846 40.6154C37.3846 40.3298 37.4981 40.0558 37.7 39.8539C37.902 39.6519 38.1759 39.5385 38.4615 39.5385H40.6154C40.901 39.5385 41.1749 39.6519 41.3769 39.8539C41.5788 40.0558 41.6923 40.3298 41.6923 40.6154C41.6923 40.901 41.5788 41.1749 41.3769 41.3769C41.1749 41.5788 40.901 41.6923 40.6154 41.6923H38.4615C38.1759 41.6923 37.902 41.5788 37.7 41.3769C37.4981 41.1749 37.3846 40.901 37.3846 40.6154Z" fill="#FFBA1A"/>
</svg>
