<svg id="Camada_1" data-name="Camada 1" xmlns="http://www.w3.org/2000/svg" viewBox="0 0 244 78"><defs><style>.cls-1{fill:#f9f9f9;fill-rule:evenodd;}</style></defs><path id="Vector_Traced_" data-name="Vector (Traced)" class="cls-1" d="M45.61,11A29.51,29.51,0,0,0,22.12,34.37,38.46,38.46,0,0,0,22,44.31,29.5,29.5,0,0,0,39.87,66.66c3.39,1.35,3.7,1.09,3.7-3v-3l-2.2.11c-4.11.22-6.23-1-7.88-4.32a11.05,11.05,0,0,0-3.38-4c-1.1-.93-.83-1.32.84-1.18s2.9,1,4.34,3a9,9,0,0,0,2.25,2.24,4.11,4.11,0,0,0,2.82.7,10.11,10.11,0,0,0,2.54-.31c.75-.26.89-.42,1-1.21a6.38,6.38,0,0,1,.82-2l.66-1-2.34-.49c-7.26-1.52-10.7-5.89-10.71-13.6,0-3.52.46-4.9,2.58-7.8a1,1,0,0,0,.1-1.18,12.26,12.26,0,0,1,.1-5.57c.4-1.34.41-1.35,1.3-1.35a13.18,13.18,0,0,1,5.46,2l1.71,1,2-.42a32,32,0,0,1,10.52,0l2.08.42,1.52-.9c2.12-1.27,4.47-2.11,5.65-2,.91.06,1,.12,1.29,1.13a16.17,16.17,0,0,1,.12,5.86c-.2.47-.07.8.78,2.07a10.58,10.58,0,0,1,1.9,6c.27,4.33-1.11,8.55-3.59,11-2,1.93-4.58,3-8.72,3.75-.84.15-.88.19-.54.57a8.61,8.61,0,0,1,.91,1.57c.49,1.08.54,1.59.66,6.78.13,6,.14,6,1.37,6,.88,0,4.12-1.34,6.16-2.57A29.08,29.08,0,0,0,79.16,32a27.79,27.79,0,0,0-7.53-12.83A28.53,28.53,0,0,0,56,11,39.86,39.86,0,0,0,45.61,11Zm55.1,10.34c-6.66,1.45-10,6-10.8,14.73-.5,5.24.27,10.5,2,13.78A12.81,12.81,0,0,0,97.28,55c2.62,1.27,5,1.66,9.2,1.51,3.7-.12,4.87-.37,7.65-1.64l1.6-.72V36.26H103.66v6.37h4.74V49.4l-.74.15a15.39,15.39,0,0,1-5.38-.22c-2.31-.69-3.72-2.46-4.56-5.76a15.86,15.86,0,0,1-.39-5.39c.11-3.74.53-5.5,1.76-7.35a7.72,7.72,0,0,1,3.73-2.64,23.74,23.74,0,0,1,8.24.16,7.64,7.64,0,0,0,2,.33,29.47,29.47,0,0,0,.8-2.92c.47-1.91.61-2.89.45-3.09-.35-.42-2.92-1.21-4.81-1.48A36.64,36.64,0,0,0,100.71,21.3Zm47.78,1.12c-.07.16-.09,7.77-.05,16.91l.06,16.61,3.28.06c2.21,0,3.38,0,3.6-.2s.33-1.6.33-7.31v-7h9.7v7.16c0,6.31.05,7.18.38,7.3a34.32,34.32,0,0,0,6.66,0c.24-.15.29-3.69.24-16.9l-.06-16.71h-7.1l-.06,6.3-.07,6.3h-9.69V28.77c0-4.41-.08-6.15-.28-6.36C155,22,148.64,22,148.49,22.42Zm52,0c-.42.42-.42,33,0,33.37a12.91,12.91,0,0,0,4.85.1,1.63,1.63,0,0,0,.44-.83c.09-.36.23-.62.31-.58,3.41,1.79,4.92,2.17,8.08,2a8.35,8.35,0,0,0,3.34-.63c3.31-1.57,4.74-5.09,4.77-11.8,0-6.26-1.41-9.52-4.92-11.12-1-.47-1.55-.54-3.9-.53-2.73,0-2.78,0-5.5,1.16-.38.16-.41-.23-.47-5.57l-.06-5.73-3.32-.07C201.71,22.13,200.69,22.2,200.48,22.4Zm-78.24.66a3.89,3.89,0,0,0-3.14,3.62,4,4,0,0,0,6,3.86,4,4,0,0,0-2.83-7.48Zm10.52,6.67V33.1l-1.83.46L129.1,34,129,36.36c-.05,1.71,0,2.39.23,2.53a6.14,6.14,0,0,0,1.89.2h1.57l.08,6.09.08,6.09.83,1.63a4.51,4.51,0,0,0,2.1,2.37,9.67,9.67,0,0,0,2.43,1,16.9,16.9,0,0,0,5.76-.07l1.18-.28.07-2.64.07-2.65h-1.56c-1.74,0-3-.44-3.41-1.15a29.13,29.13,0,0,1-.25-5.44v-5h2.34c1.7,0,2.4-.09,2.6-.33s.26-1.23.21-3l-.07-2.68L142.65,33,140.11,33l-.06-3.23L140,26.49l-3.61-.07-3.61-.06Zm-13.32,3.39c-.2.2-.21,21.82,0,22.33.12.31.67.37,3.67.37h3.52V33H123.1A24.67,24.67,0,0,0,119.44,33.12Zm56.43,9.09c.07,9.08.08,9.27.61,10.43,1.22,2.64,3.06,3.66,6.88,3.84a12.56,12.56,0,0,0,6.79-1.24l1.68-.77.22.73c.21.74.22.74,2.11.81a13.09,13.09,0,0,0,2.42-.07l.54-.13-.06-11.36L197,33.08h-7.1l-.06,8.29-.07,8.29-1.3.49c-2.17.8-4.43.52-5-.62-.11-.24-.26-4-.32-8.44l-.12-8L179.42,33,175.8,33Zm37.46-3.49a4.41,4.41,0,0,1,1.14,1.51c.44,1,.5,1.5.5,4.4,0,3.77-.29,4.75-1.58,5.53a5.68,5.68,0,0,1-4.56,0l-1.31-.49V39.16l1-.37A15.44,15.44,0,0,1,210,38.3,5.81,5.81,0,0,1,213.33,38.72ZM32.1,52.29a.27.27,0,0,0,.37.1c.33-.2.27-.34-.15-.34C32.12,52.05,32,52.16,32.1,52.29Zm1.21,1.06c.08.19.24.35.35.35s.21-.16.21-.35a.35.35,0,0,0-.34-.36C33.31,53,33.23,53.13,33.31,53.35Zm1.08,1.44a.69.69,0,0,0,.51.52c.32.06.41,0,.35-.35a.68.68,0,0,0-.51-.51C34.42,54.39,34.33,54.48,34.39,54.79Zm1.38,1.72c0,.34.15.49.49.49s.46-.13.41-.41C36.55,56,35.77,55.9,35.77,56.51Zm2,1c-.22.36.08.71.62.71.32,0,.45-.13.4-.4C38.71,57.3,38,57.08,37.78,57.46Zm4.54.16a.63.63,0,0,0-.17.37c0,.29,1.19.13,1.25-.17S42.56,57.37,42.32,57.62ZM40,58c0,.37.45.6.89.44s.32-.77-.29-.77C40.27,57.7,40,57.84,40,58Z"/></svg>