<svg width="128" height="29" viewBox="0 0 128 29" fill="none" xmlns="http://www.w3.org/2000/svg">
<path d="M47.6159 6.2L40.2959 23H37.2239L29.8799 6.2H33.2639L38.8559 19.16L44.4959 6.2H47.6159ZM49.2179 10.184H52.2179V23H49.2179V10.184ZM50.7299 8.072C50.1859 8.072 49.7299 7.904 49.3619 7.568C48.9939 7.216 48.8099 6.784 48.8099 6.272C48.8099 5.76 48.9939 5.336 49.3619 5C49.7299 4.648 50.1859 4.472 50.7299 4.472C51.2739 4.472 51.7299 4.64 52.0979 4.976C52.4659 5.296 52.6499 5.704 52.6499 6.2C52.6499 6.728 52.4659 7.176 52.0979 7.544C51.7459 7.896 51.2899 8.072 50.7299 8.072ZM63.4274 10.04C65.0434 10.04 66.3394 10.512 67.3154 11.456C68.2914 12.4 68.7794 13.8 68.7794 15.656V23H65.7794V16.04C65.7794 14.92 65.5154 14.08 64.9874 13.52C64.4594 12.944 63.7074 12.656 62.7314 12.656C61.6274 12.656 60.7554 12.992 60.1154 13.664C59.4754 14.32 59.1554 15.272 59.1554 16.52V23H56.1554V10.184H59.0114V11.84C59.5074 11.248 60.1314 10.8 60.8834 10.496C61.6354 10.192 62.4834 10.04 63.4274 10.04ZM72.5851 10.184H75.5851V23H72.5851V10.184ZM74.0971 8.072C73.5531 8.072 73.0971 7.904 72.7291 7.568C72.3611 7.216 72.1771 6.784 72.1771 6.272C72.1771 5.76 72.3611 5.336 72.7291 5C73.0971 4.648 73.5531 4.472 74.0971 4.472C74.6411 4.472 75.0971 4.64 75.4651 4.976C75.8331 5.296 76.0171 5.704 76.0171 6.2C76.0171 6.728 75.8331 7.176 75.4651 7.544C75.1131 7.896 74.6571 8.072 74.0971 8.072ZM85.4026 23.168C84.0746 23.168 82.8826 22.888 81.8266 22.328C80.7706 21.768 79.9466 20.992 79.3546 20C78.7626 18.992 78.4666 17.856 78.4666 16.592C78.4666 15.328 78.7626 14.2 79.3546 13.208C79.9466 12.216 80.7626 11.44 81.8026 10.88C82.8586 10.32 84.0586 10.04 85.4026 10.04C86.6666 10.04 87.7706 10.296 88.7146 10.808C89.6746 11.32 90.3946 12.056 90.8746 13.016L88.5706 14.36C88.2026 13.768 87.7386 13.328 87.1786 13.04C86.6346 12.736 86.0346 12.584 85.3786 12.584C84.2586 12.584 83.3306 12.952 82.5946 13.688C81.8586 14.408 81.4906 15.376 81.4906 16.592C81.4906 17.808 81.8506 18.784 82.5706 19.52C83.3066 20.24 84.2426 20.6 85.3786 20.6C86.0346 20.6 86.6346 20.456 87.1786 20.168C87.7386 19.864 88.2026 19.416 88.5706 18.824L90.8746 20.168C90.3786 21.128 89.6506 21.872 88.6906 22.4C87.7466 22.912 86.6506 23.168 85.4026 23.168ZM93.4679 10.184H96.4679V23H93.4679V10.184ZM94.9799 8.072C94.4359 8.072 93.9799 7.904 93.6119 7.568C93.2439 7.216 93.0599 6.784 93.0599 6.272C93.0599 5.76 93.2439 5.336 93.6119 5C93.9799 4.648 94.4359 4.472 94.9799 4.472C95.5239 4.472 95.9799 4.64 96.3479 4.976C96.7159 5.296 96.8999 5.704 96.8999 6.2C96.8999 6.728 96.7159 7.176 96.3479 7.544C95.9959 7.896 95.5399 8.072 94.9799 8.072ZM112.813 10.184V23H109.957V21.368C109.477 21.944 108.877 22.392 108.157 22.712C107.437 23.016 106.661 23.168 105.829 23.168C104.117 23.168 102.765 22.696 101.773 21.752C100.797 20.792 100.309 19.376 100.309 17.504V10.184H103.309V17.096C103.309 18.248 103.565 19.112 104.077 19.688C104.605 20.248 105.349 20.528 106.309 20.528C107.381 20.528 108.229 20.2 108.853 19.544C109.493 18.872 109.813 17.912 109.813 16.664V10.184H112.813ZM120.701 23.168C119.661 23.168 118.645 23.032 117.653 22.76C116.661 22.488 115.869 22.144 115.277 21.728L116.429 19.448C117.005 19.832 117.693 20.144 118.493 20.384C119.309 20.608 120.109 20.72 120.893 20.72C122.685 20.72 123.581 20.248 123.581 19.304C123.581 18.856 123.349 18.544 122.885 18.368C122.437 18.192 121.709 18.024 120.701 17.864C119.645 17.704 118.781 17.52 118.109 17.312C117.453 17.104 116.877 16.744 116.381 16.232C115.901 15.704 115.661 14.976 115.661 14.048C115.661 12.832 116.165 11.864 117.173 11.144C118.197 10.408 119.573 10.04 121.301 10.04C122.181 10.04 123.061 10.144 123.941 10.352C124.821 10.544 125.541 10.808 126.101 11.144L124.949 13.424C123.861 12.784 122.637 12.464 121.277 12.464C120.397 12.464 119.725 12.6 119.261 12.872C118.813 13.128 118.589 13.472 118.589 13.904C118.589 14.384 118.829 14.728 119.309 14.936C119.805 15.128 120.565 15.312 121.589 15.488C122.613 15.648 123.453 15.832 124.109 16.04C124.765 16.248 125.325 16.6 125.789 17.096C126.269 17.592 126.509 18.296 126.509 19.208C126.509 20.408 125.989 21.368 124.949 22.088C123.909 22.808 122.493 23.168 120.701 23.168Z" fill="#EBEBEB"/>
<path d="M10.9999 25C13.9173 25 16.7152 23.8411 18.7781 21.7782C20.841 19.7153 21.9999 16.9174 21.9999 14C21.9999 11.0826 20.841 8.28473 18.7781 6.22183C16.7152 4.15893 13.9173 3 10.9999 3C8.08256 3 5.28466 4.15893 3.22176 6.22183C1.15886 8.28473 -6.10352e-05 11.0826 -6.10352e-05 14C-6.10352e-05 16.9174 1.15886 19.7153 3.22176 21.7782C5.28466 23.8411 8.08256 25 10.9999 25ZM9.62494 11.9375C9.62494 12.6264 9.39944 12.482 9.05431 12.2606C8.82744 12.1149 8.54969 11.9375 8.24994 11.9375C7.95019 11.9375 7.67244 12.1163 7.44556 12.2606C7.10044 12.482 6.87494 12.625 6.87494 11.9375C6.87494 10.799 7.49094 9.875 8.24994 9.875C9.00894 9.875 9.62494 10.799 9.62494 11.9375ZM16.9551 16.0625C17.0757 16.2715 17.1393 16.5086 17.1393 16.75C17.1393 16.9914 17.0757 17.2285 16.9551 17.4375C16.3518 18.483 15.4837 19.3511 14.4383 19.9546C13.3929 20.558 12.207 20.8755 10.9999 20.875C9.7931 20.8752 8.60747 20.5577 7.56233 19.9543C6.51718 19.3508 5.64937 18.4828 5.04619 17.4375C4.92557 17.2286 4.86204 16.9916 4.86197 16.7504C4.86191 16.5091 4.92532 16.2721 5.04584 16.0631C5.16635 15.8541 5.33973 15.6805 5.54856 15.5597C5.75739 15.439 5.99432 15.3752 6.23556 15.375H15.7643C16.0057 15.375 16.2428 15.4385 16.4518 15.5592C16.6608 15.6799 16.8344 15.8535 16.9551 16.0625ZM14.5543 12.2606C14.3274 12.1149 14.0497 11.9375 13.7499 11.9375C13.4502 11.9375 13.1724 12.1163 12.9456 12.2606C12.6004 12.482 12.3749 12.625 12.3749 11.9375C12.3749 10.799 12.9909 9.875 13.7499 9.875C14.5089 9.875 15.1249 10.799 15.1249 11.9375C15.1249 12.6264 14.8994 12.482 14.5543 12.2606Z" fill="#FFBA1A"/>
</svg>
