<svg id="Camada_1" data-name="Camada 1" xmlns="http://www.w3.org/2000/svg" viewBox="0 0 244 78"><defs><style>.cls-1{fill:#3c88bc;}</style></defs><path class="cls-1" d="M224.25,61.41h0a1,1,0,0,0,.94-.95v-.05c0-.71-.43-1-1.31-1h-1.41v3.71H223V61.45h.66v0l1,1.6h.57l-1.1-1.65Zm-.62-.38H223V59.78h.79c.4,0,.86.07.86.6s-.47.65-1,.65M16.8,20.88h7.86V49.51H39.21v7.25H16.8ZM42.68,32.43h7.55V56.75H42.68Zm3.78-12.09a4.39,4.39,0,1,1-4.38,4.39,4.41,4.41,0,0,1,4.38-4.39h0m35.36.54h7.55V42.32l8.56-9.9h9.26L97.28,43.68,107,56.76H97.49l-8-12h-.1v12H81.82ZM54.42,32.44h7.25v3.32h.1a8,8,0,0,1,7.15-3.93c7.66,0,9.07,5,9.07,11.58V56.75H70.44V44.93c0-2.82,0-6.45-3.93-6.45S62,41.55,62,44.72v12H54.43Z"/><path class="cls-1" d="M123.09,41.76v-.1a4.55,4.55,0,0,0-4.53-4.53h-.11a5.06,5.06,0,0,0-5.33,4.63Zm6.39,10.78a13.28,13.28,0,0,1-10.32,4.84c-7.55,0-13.6-5-13.6-12.85s6-12.84,13.6-12.84c7.06,0,11.48,5,11.48,12.84V46.9H113.12a5.67,5.67,0,0,0,5.69,4.74,6.48,6.48,0,0,0,5.39-3Zm16.9-14.23c-3.77,0-6,2.52-6,6.2s2.27,6.19,6,6.19,6.05-2.51,6.05-6.19-2.27-6.2-6.05-6.2m13,18.44h-6.95V53.52h-.1a9.49,9.49,0,0,1-7.51,3.83c-7.26,0-12-5.24-12-12.64,0-6.8,4.23-13,11.19-13,3.12,0,6,.85,7.75,3.22h.1v-14h7.56Zm51,0H202.8V44.94c0-2.82-.05-6.45-3.92-6.45s-4.54,3.07-4.54,6.24v12h-7.55V32.44H194v3.33h.1a7.94,7.94,0,0,1,7.15-3.93c7.66,0,9.07,5,9.07,11.58ZM178.27,29.12h0a4.38,4.38,0,1,1,4.38-4.38h0a4.4,4.4,0,0,1-4.38,4.38m3.78,27.64h-7.56V32.44h7.56Zm32.07-43.42H170.69A3.75,3.75,0,0,0,166.93,17v43.6a3.75,3.75,0,0,0,3.76,3.68h43.43a3.73,3.73,0,0,0,3.77-3.68V17a3.73,3.73,0,0,0-3.77-3.67m9.58,44.37a3.47,3.47,0,1,0,.06,0h-.06m0,6.55h-.06a3,3,0,1,1,3.05-3.1v.06a3,3,0,0,1-2.91,3h-.08"/></svg>