<svg id="Camada_1" data-name="Camada 1" xmlns="http://www.w3.org/2000/svg" viewBox="0 0 244 78"><defs><style>.cls-1{fill:#7f8c8d;}.cls-2{fill:#f1c40f;}.cls-3{fill:#494948;}.cls-4{fill:#e8d172;}</style></defs><path class="cls-1" d="M56.48,34.07a9.24,9.24,0,0,1,.65-2.28,5.2,5.2,0,0,1,1.17-1.71A4.85,4.85,0,0,1,60.13,29a8.2,8.2,0,0,1,2.58-.36H83.66c.72,0,1,.36.93,1.09l-.34,2.07A1.14,1.14,0,0,1,83,32.9H63.38a2,2,0,0,0-2.19,1.91l-.93,5.8a1,1,0,0,0,0,.23v.21c0,1,.54,1.47,1.63,1.47h19.6c.72,0,1,.36.93,1.09l-.34,2.07a1.12,1.12,0,0,1-1.24,1.08H59.87a4.92,4.92,0,0,1-3.45-1.08,4,4,0,0,1-1.18-3.08,7.08,7.08,0,0,1,.1-1.24Z"/><path class="cls-1" d="M86.16,34.07a9.7,9.7,0,0,1,.65-2.28A5.22,5.22,0,0,1,88,30.08,4.89,4.89,0,0,1,89.81,29a8.26,8.26,0,0,1,2.59-.36h18.46a4.88,4.88,0,0,1,3.45,1.09,4,4,0,0,1,1.18,3.07,7.27,7.27,0,0,1-.11,1.25l-1.13,7.29a9.65,9.65,0,0,1-.65,2.29,5.24,5.24,0,0,1-1.18,1.69,4.89,4.89,0,0,1-1.82,1.06,8.26,8.26,0,0,1-2.59.36H89.55a4.92,4.92,0,0,1-3.45-1.08,4,4,0,0,1-1.18-3.08A7.06,7.06,0,0,1,85,41.36Zm6.91-1.17a2,2,0,0,0-2.2,1.91l-.93,5.8a1,1,0,0,0,0,.23v.21c0,1,.55,1.47,1.63,1.47h15.78a2.25,2.25,0,0,0,1.51-.49,2.18,2.18,0,0,0,.71-1.42l.93-5.8a.88.88,0,0,0,0-.21v-.2c0-1-.56-1.5-1.66-1.5Z"/><path class="cls-1" d="M134.83,34.81a.82.82,0,0,0,0-.21v-.2q0-1.5-1.65-1.5h-8.09a2,2,0,0,0-2.2,1.91l-1.73,10.87a1.14,1.14,0,0,1-1.25,1.08H117.3q-1.1,0-.93-1.08l1.83-11.61a9.7,9.7,0,0,1,.65-2.28A5.08,5.08,0,0,1,120,30.08,4.81,4.81,0,0,1,121.85,29a8.2,8.2,0,0,1,2.58-.36h9.16a5.76,5.76,0,0,1,2.65.54,3.42,3.42,0,0,1,1.54,1.56,4.88,4.88,0,0,1,2-1.56,7.54,7.54,0,0,1,3-.54H152a4.91,4.91,0,0,1,3.45,1.09,4,4,0,0,1,1.18,3.07,7.27,7.27,0,0,1-.11,1.25l-1.83,11.61a1.14,1.14,0,0,1-1.25,1.08h-2.63q-1.09,0-.93-1.08l1.73-10.87a.82.82,0,0,0,0-.21v-.2q0-1.5-1.65-1.5h-8.09a2,2,0,0,0-2.2,1.91l-1.73,10.87a1.14,1.14,0,0,1-1.25,1.08H134q-1.09,0-.93-1.08Z"/><path class="cls-1" d="M176.05,34.81a1.83,1.83,0,0,0,0-.21v-.2q0-1.5-1.65-1.5h-8.1a2,2,0,0,0-2.19,1.91l-1.74,10.87a1.12,1.12,0,0,1-1.24,1.08h-2.64q-1.08,0-.93-1.08l1.84-11.61a9.24,9.24,0,0,1,.65-2.28,5.2,5.2,0,0,1,1.17-1.71A4.85,4.85,0,0,1,163.07,29a8.2,8.2,0,0,1,2.58-.36h9.15a5.8,5.8,0,0,1,2.66.54A3.4,3.4,0,0,1,179,30.76a4.91,4.91,0,0,1,2-1.56,7.54,7.54,0,0,1,3-.54h9.15a4.92,4.92,0,0,1,3.46,1.09,4,4,0,0,1,1.17,3.07,7.28,7.28,0,0,1-.1,1.25l-1.84,11.61a1.12,1.12,0,0,1-1.24,1.08H192q-1.08,0-.93-1.08l1.74-10.87a1.83,1.83,0,0,0,0-.21v-.2q0-1.5-1.65-1.5h-8.1a2,2,0,0,0-2.19,1.91l-1.74,10.87a1.12,1.12,0,0,1-1.24,1.08h-2.64q-1.08,0-.93-1.08Z"/><path class="cls-2" d="M203.74,45.68a1.13,1.13,0,0,1-1.24,1.08h-2.64q-1.08,0-.93-1.08l2.53-15.93a1.14,1.14,0,0,1,1.25-1.09h2.63c.73,0,1,.36.93,1.09Z"/><path class="cls-2" d="M222.51,45.68a1.12,1.12,0,0,1-1.24,1.08h-2.64q-1.08,0-.93-1.08l2-12.78H208.94c-.71,0-1-.36-.91-1.08l.34-2.07a1.13,1.13,0,0,1,1.24-1.09H236c.72,0,1,.36.93,1.09l-.34,2.07a1.13,1.13,0,0,1-1.26,1.08H224.53Z"/><path class="cls-1" d="M163.5,56.18l.19-1.22a.61.61,0,0,1,.68-.57h1.77c.38,0,.53.19.48.57l-.19,1.22a.6.6,0,0,1-.66.58H164C163.61,56.76,163.45,56.57,163.5,56.18Z"/><path class="cls-1" d="M176.93,49.3a2.22,2.22,0,0,1,1.06.22,1.52,1.52,0,0,1,.63.6l.54-3.42a.54.54,0,0,1,.61-.53h1.33c.34,0,.5.18.46.53l-1.23,7.78a3,3,0,0,1-.79,1.65,2.48,2.48,0,0,1-1.85.63h-7.56a2,2,0,0,1-1.43-.49,1.7,1.7,0,0,1-.53-1.33,2.45,2.45,0,0,1,0-.46l.46-2.9a2.84,2.84,0,0,1,.78-1.66,2.53,2.53,0,0,1,1.86-.62Zm1.37,2.82a.54.54,0,0,0,0-.15.52.52,0,0,0-.17-.41.64.64,0,0,0-.45-.15h-5.89a.83.83,0,0,0-.56.19.88.88,0,0,0-.27.52l-.29,1.81a.63.63,0,0,0,0,.16.53.53,0,0,0,.17.41.64.64,0,0,0,.45.15h5.89a.88.88,0,0,0,.56-.19.94.94,0,0,0,.28-.53Z"/><path class="cls-1" d="M194.28,51.64a3.77,3.77,0,0,1-.24.91,1.78,1.78,0,0,1-.46.67,1.85,1.85,0,0,1-.73.41,3.26,3.26,0,0,1-1,.14h-7.44l0,.16a.71.71,0,0,0,0,.16.53.53,0,0,0,.16.41.64.64,0,0,0,.45.15h8c.35,0,.5.18.44.53l-.17,1a.56.56,0,0,1-.6.53h-8.81a2,2,0,0,1-1.43-.49,1.7,1.7,0,0,1-.53-1.33,2.45,2.45,0,0,1,0-.46l.46-2.9a2.84,2.84,0,0,1,.78-1.66A2.56,2.56,0,0,1,185,49.3h7.55a2,2,0,0,1,1.37.42,1.5,1.5,0,0,1,.47,1.21,3,3,0,0,1,0,.51Zm-9.68.64h6.81a.36.36,0,0,0,.3-.11.46.46,0,0,0,.13-.26l0-.06a.46.46,0,0,0,0-.1v-.07c0-.18-.11-.27-.32-.27h-6.09a.8.8,0,0,0-.55.19.89.89,0,0,0-.28.52Z"/><path class="cls-1" d="M198.87,56.34l-3.7-6.47a.35.35,0,0,1,0-.37.36.36,0,0,1,.36-.2h1.65a1,1,0,0,1,.43.08.63.63,0,0,1,.25.28l2.86,5.05,4.46-5.05a1.08,1.08,0,0,1,.31-.28,1,1,0,0,1,.43-.08h1.8a.3.3,0,0,1,.32.2.39.39,0,0,1-.08.37l-5.77,6.47a1.18,1.18,0,0,1-.93.42h-1.58A.86.86,0,0,1,198.87,56.34Z"/><path class="cls-1" d="M206.3,56.18l.18-1.22a.61.61,0,0,1,.68-.57h1.77c.38,0,.53.19.48.57l-.19,1.22a.6.6,0,0,1-.66.58h-1.78C206.4,56.76,206.24,56.57,206.3,56.18Z"/><path class="cls-1" d="M212.3,46.7a.54.54,0,0,1,.61-.53h1.33c.34,0,.5.18.46.53l-.55,3.4a2.46,2.46,0,0,1,.82-.59,2.85,2.85,0,0,1,1.13-.21h5.63a2,2,0,0,1,1.42.49,1.77,1.77,0,0,1,.53,1.35v.22a.89.89,0,0,1,0,.22l-.46,2.9a3,3,0,0,1-.79,1.65,2.48,2.48,0,0,1-1.85.63H213a2,2,0,0,1-1.43-.49,1.7,1.7,0,0,1-.53-1.33,2.45,2.45,0,0,1,0-.46Zm1.25,7.23a.71.71,0,0,0,0,.16.53.53,0,0,0,.16.41.64.64,0,0,0,.45.15h5.9a.85.85,0,0,0,.55-.19.88.88,0,0,0,.28-.53l.29-1.81a.62.62,0,0,0,0-.15.55.55,0,0,0-.16-.41.67.67,0,0,0-.46-.15h-5.89a.8.8,0,0,0-.55.19.89.89,0,0,0-.28.52Z"/><path class="cls-1" d="M226,49.92a2.56,2.56,0,0,1,1.86-.62h5.29c.36,0,.5.18.45.53l-.18,1.05a.55.55,0,0,1-.6.53h-4.46a.8.8,0,0,0-.55.19.89.89,0,0,0-.28.52l-.66,4.11a.56.56,0,0,1-.6.53H224.9c-.37,0-.52-.18-.46-.53l.74-4.65A3,3,0,0,1,226,49.92Z"/><path class="cls-1" d="M25.37,21.63c1.64,0,3.29,0,4.94,0a1.44,1.44,0,0,1,1.55,1.44,1.45,1.45,0,0,1-1.59,1.48c-2.47,0-4.95,0-7.43,0-.79,0-1.59,0-2.38,0a1.48,1.48,0,0,1-1.59-1.48,1.46,1.46,0,0,1,1.56-1.44C22.08,21.62,23.72,21.63,25.37,21.63Z"/><path class="cls-1" d="M37.31,43.22H32.9a1.46,1.46,0,0,1-1.61-1.44,1.48,1.48,0,0,1,1.59-1.48h8.83a1.46,1.46,0,1,1,0,2.91Z"/><path class="cls-3" d="M32.37,45c.7,0,1.4,0,2.09,0a1.47,1.47,0,1,1,0,2.93c-1.42,0-2.83,0-4.24,0a1.42,1.42,0,0,1-1.53-1.46A1.44,1.44,0,0,1,30.22,45C30.94,45,31.66,45,32.37,45Z"/><path class="cls-2" d="M35,33.89H32.78a1.46,1.46,0,1,1,0-2.91Q35,31,37.3,31a1.46,1.46,0,0,1,0,2.91C36.54,33.91,35.77,33.89,35,33.89Z"/><path class="cls-1" d="M16.4,43.22c-.6,0-1.2,0-1.8,0a1.46,1.46,0,0,1,0-2.91c1.26,0,2.51,0,3.77,0a1.46,1.46,0,0,1,0,2.91H16.4Z"/><path class="cls-2" d="M20.45,38.56c-.5,0-1,0-1.51,0a1.45,1.45,0,0,1,0-2.9c1,0,2.06,0,3.08,0a1.45,1.45,0,0,1,0,2.9C21.5,38.57,21,38.56,20.45,38.56Z"/><path class="cls-4" d="M35.28,21.65c.31,0,.62,0,.93,0a1.45,1.45,0,0,1,0,2.9,15.22,15.22,0,0,1-1.91,0,1.46,1.46,0,0,1,0-2.9c.31,0,.62,0,.93,0Z"/><path class="cls-3" d="M14.23,38.55c-.27,0-.55,0-.82,0a1.46,1.46,0,0,1,0-2.9,15.69,15.69,0,0,1,1.68,0,1.46,1.46,0,0,1,0,2.9C14.81,38.57,14.52,38.55,14.23,38.55Z"/><path class="cls-4" d="M20.91,52.58a7.32,7.32,0,0,1-.81,0,1.46,1.46,0,0,1-1.23-1.47,1.42,1.42,0,0,1,1.3-1.4,8.78,8.78,0,0,1,1.45,0,1.45,1.45,0,0,1,.1,2.88A5.43,5.43,0,0,1,20.91,52.58Z"/><path class="cls-3" d="M41.61,33.89c-1.07,0-1.72-.55-1.73-1.43S40.51,31,41.55,31a1.5,1.5,0,0,1,1.56,2.17A1.44,1.44,0,0,1,41.61,33.89Z"/><path class="cls-1" d="M40.91,27a1.19,1.19,0,0,0-1.27-.7c-3.07,0-6.15,0-9.23,0a1.4,1.4,0,0,0-1.35,1.46,1.43,1.43,0,0,0,1.45,1.43c3.06,0,6.12,0,9.18,0A1.41,1.41,0,0,0,40.91,27Z"/><path class="cls-2" d="M26,45c-1.16,0-2.31,0-3.47,0H20.83c-1.36,0-2.71,0-4.07,0a1.44,1.44,0,0,0-1.48,1.47,1.47,1.47,0,0,0,1.56,1.45c.31,0,.62,0,.93,0a1.46,1.46,0,0,0,.3-.17,1.46,1.46,0,0,1-.3.17,6.43,6.43,0,0,0,1.64,0h.81c1.94.07,3.89.08,5.83,0a1.43,1.43,0,0,0,1.5-1.43A1.46,1.46,0,0,0,26,45Z"/><path class="cls-4" d="M23.8,40.32a9,9,0,0,0-1.56,0A1.44,1.44,0,0,0,21,41.47,1.34,1.34,0,0,0,21.68,43a3.56,3.56,0,0,0,2.84-.09.68.68,0,0,0,.33-.34A1.43,1.43,0,0,0,23.8,40.32Z"/><path class="cls-3" d="M27.91,27.71a1.38,1.38,0,0,0-1.36-1.39c-1.76,0-3.52,0-5.28,0-.81,0-1.14.26-1.49,1.16,0,1,.46,1.69,1.32,1.71q2.76.06,5.52,0A1.37,1.37,0,0,0,27.91,27.71Z"/><path class="cls-4" d="M17.23,26.32c-1.22-.06-2,.48-2,1.45a1.46,1.46,0,0,0,1,1.39,1.76,1.76,0,0,0,2.07-.6h0a.57.57,0,0,0,.18-.37l0-.23A1.38,1.38,0,0,0,17.23,26.32Z"/><path class="cls-1" d="M25.08,32a1.45,1.45,0,0,0-1.44-1H16.15a6,6,0,0,0-2.12.13s-.06,0-.08,0a.37.37,0,0,0-.27.16,1.11,1.11,0,0,0-.5.86,1.38,1.38,0,0,0,1.23,1.69H23.8a.9.9,0,0,0,.27-.07.42.42,0,0,0,.35-.15A1.41,1.41,0,0,0,25.08,32Z"/><path class="cls-4" d="M40.84,45.6h0l-.09-.14-.11-.11-.07,0h0l.07,0a3.17,3.17,0,0,0-2.81-.15,1.39,1.39,0,0,0-.66,1.44c.12.92.81,1.34,2,1.23a1.23,1.23,0,0,0,.71,0,1.13,1.13,0,0,0,1-.7A1.25,1.25,0,0,0,40.84,45.6Zm0,0h0Zm.11,1.24c0,.07,0,.13,0,.19a.38.38,0,0,0,0,.1h0a.38.38,0,0,1,0-.1c0-.06,0-.12,0-.19a1.15,1.15,0,0,0,0-.19A1.15,1.15,0,0,1,40.94,46.85Z"/><path class="cls-1" d="M37.78,50.69a1.56,1.56,0,0,0-1.57-1c-2.74,0-5.47,0-8.21,0a7.29,7.29,0,0,0-2.33.13s-.07,0-.08,0a.4.4,0,0,0-.29.17,1.1,1.1,0,0,0-.56.85,1.4,1.4,0,0,0,1.35,1.69l10.29,0a1.09,1.09,0,0,0,.3-.07.47.47,0,0,0,.38-.15A1.36,1.36,0,0,0,37.78,50.69Z"/></svg>