<svg id="Camada_1" data-name="Camada 1" xmlns="http://www.w3.org/2000/svg" viewBox="0 0 244 78"><defs><style>.cls-1{fill:#5865f2;}</style></defs><path class="cls-1" d="M61,22a42.78,42.78,0,0,0-10.89-3.42c-.47.85-1,2-1.4,2.9a40,40,0,0,0-12.07,0c-.38-.91-.94-2.05-1.41-2.9A42.94,42.94,0,0,0,24.36,22a45.75,45.75,0,0,0-7.83,30.6A43.82,43.82,0,0,0,29.9,59.44a34.06,34.06,0,0,0,2.86-4.72,28,28,0,0,1-4.51-2.19q.57-.42,1.11-.87a30.81,30.81,0,0,0,26.71,0q.54.45,1.11.87a28.19,28.19,0,0,1-4.52,2.2,33.58,33.58,0,0,0,2.86,4.71,43.48,43.48,0,0,0,13.37-6.85A45.64,45.64,0,0,0,61,22ZM33.94,46.43c-2.61,0-4.75-2.44-4.75-5.4s2.1-5.41,4.75-5.41,4.79,2.44,4.75,5.41S36.6,46.43,33.94,46.43Zm17.55,0c-2.61,0-4.75-2.44-4.75-5.4s2.09-5.41,4.75-5.41,4.79,2.44,4.74,5.41S54.14,46.43,51.49,46.43Z"/><path class="cls-1" d="M87.25,28.87H98.71a16.66,16.66,0,0,1,7,1.32A9.4,9.4,0,0,1,110,33.86a10.66,10.66,0,0,1-.06,10.77,10.07,10.07,0,0,1-4.52,3.82,17.9,17.9,0,0,1-7.54,1.41H87.25ZM97.6,44.79a5.88,5.88,0,0,0,4.21-1.4,5,5,0,0,0,1.48-3.81A4.86,4.86,0,0,0,102,36a5.31,5.31,0,0,0-4-1.34H94.49V44.79Z"/><path class="cls-1" d="M127.78,49.93a15.34,15.34,0,0,1-4.33-1.85v-5a11.82,11.82,0,0,0,3.9,1.9,16.55,16.55,0,0,0,4.74.74,3.64,3.64,0,0,0,1.62-.29c.36-.19.55-.42.55-.68A1,1,0,0,0,134,44a2.57,2.57,0,0,0-1.16-.52l-3.56-.82a9,9,0,0,1-4.35-2,4.89,4.89,0,0,1-.16-6.44,7.14,7.14,0,0,1,3.21-2,14.81,14.81,0,0,1,4.86-.72,18.2,18.2,0,0,1,4.58.55,12.69,12.69,0,0,1,3.44,1.39v4.77a12.59,12.59,0,0,0-3.22-1.36,14.31,14.31,0,0,0-3.76-.49c-1.86,0-2.79.32-2.79,1a.73.73,0,0,0,.43.68,7.52,7.52,0,0,0,1.59.47l3,.54a8.66,8.66,0,0,1,4.33,1.81,4.84,4.84,0,0,1,1.43,3.8A5.07,5.07,0,0,1,139.44,49a11.78,11.78,0,0,1-6.7,1.62A19.12,19.12,0,0,1,127.78,49.93Z"/><path class="cls-1" d="M148.77,49.12A8.7,8.7,0,0,1,145,45.74a9.32,9.32,0,0,1-1.27-4.81,8.89,8.89,0,0,1,1.31-4.78,8.77,8.77,0,0,1,3.84-3.31,13.87,13.87,0,0,1,6.05-1.2c2.9,0,5.32.62,6.88,1.87v5.43a4.12,4.12,0,0,0-2-1.16,9.42,9.42,0,0,0-2.9-.44,7.51,7.51,0,0,0-4.22,1A3,3,0,0,0,151.16,41a3.09,3.09,0,0,0,1.48,2.63,7.56,7.56,0,0,0,4.3,1,10,10,0,0,0,2.87-.43,26.8,26.8,0,0,0,2.73-1.06v5.26a15.8,15.8,0,0,1-7.72,2A13.56,13.56,0,0,1,148.77,49.12Z"/><path class="cls-1" d="M169.43,49.12a8.9,8.9,0,0,1-5.16-8.25,8.75,8.75,0,0,1,1.32-4.77,8.91,8.91,0,0,1,3.83-3.28,15.52,15.52,0,0,1,11.92,0,8.47,8.47,0,0,1,5.11,8,9.16,9.16,0,0,1-1.3,4.84,9,9,0,0,1-3.83,3.42,14.76,14.76,0,0,1-11.89,0Zm8.83-5.27A3.89,3.89,0,0,0,179.33,41a3.79,3.79,0,0,0-1.07-2.83,3.88,3.88,0,0,0-2.89-1.06,3.94,3.94,0,0,0-2.92,1.06A3.79,3.79,0,0,0,171.39,41a3.7,3.7,0,0,0,4,3.95A3.82,3.82,0,0,0,178.26,43.85Z"/><path class="cls-1" d="M203.8,32.81v6.26a5.24,5.24,0,0,0-3-.77,4.65,4.65,0,0,0-3.7,1.49,6.93,6.93,0,0,0-1.29,4.62v5.45h-6.52V32.48h6.52V38a9.21,9.21,0,0,1,1.9-4.47,4.37,4.37,0,0,1,3.38-1.44A4.94,4.94,0,0,1,203.8,32.81Z"/><path class="cls-1" d="M227.69,28.14V49.86h-7.24v-4a7,7,0,0,1-2.79,3.39A8.65,8.65,0,0,1,213,50.46a7.5,7.5,0,0,1-4.29-1.22,7.93,7.93,0,0,1-2.82-3.35,11.24,11.24,0,0,1-1-4.81,10.9,10.9,0,0,1,1.05-5,8.13,8.13,0,0,1,7.52-4.67q5.18,0,6.94,4.58V28.14Zm-8.28,15.6a3.82,3.82,0,0,0,1.08-2.81,3.59,3.59,0,0,0-1.06-2.7,4,4,0,0,0-2.89-1,3.88,3.88,0,0,0-2.87,1.06A3.65,3.65,0,0,0,212.59,41a3.71,3.71,0,0,0,1.08,2.76,3.81,3.81,0,0,0,2.84,1.07A4,4,0,0,0,219.41,43.74Z"/><path class="cls-1" d="M117.21,34.25A3.41,3.41,0,0,0,120.76,31a3.56,3.56,0,0,0-7.1,0A3.41,3.41,0,0,0,117.21,34.25Z"/><path class="cls-1" d="M113.31,36.49a9.28,9.28,0,0,0,7.24,0V49.86h-7.24Z"/></svg>